<svg viewBox="0 0 40 40" fill="none" xmlns="http://www.w3.org/2000/svg">
<path d="M5.16127 39.3548C7.65546 39.3548 9.6774 37.3329 9.6774 34.8387C9.6774 32.3445 7.65546 30.3226 5.16127 30.3226C2.66708 30.3226 0.645142 32.3445 0.645142 34.8387C0.645142 37.3329 2.66708 39.3548 5.16127 39.3548Z" stroke="currentColor"/>
<path d="M5.16126 37.0968C6.40836 37.0968 7.41933 36.0858 7.41933 34.8387C7.41933 33.5916 6.40836 32.5806 5.16126 32.5806C3.91417 32.5806 2.9032 33.5916 2.9032 34.8387C2.9032 36.0858 3.91417 37.0968 5.16126 37.0968Z" fill="currentColor" stroke="currentColor" stroke-width="0.5"/>
<path d="M28.3342 3.73461C27.8333 4.94056 27.437 5.87022 27.4515 6.84528C27.4665 7.84901 27.9061 8.81361 28.7542 10.1578L28.8317 10.2788L28.9517 10.3564C30.2089 11.1638 31.1507 11.6353 32.1609 11.6626C33.1516 11.6893 34.1072 11.2816 35.3613 10.6775L38.2759 9.3875C38.081 10.3434 37.6938 11.254 37.1276 12.058C36.3511 13.1604 35.2763 14.0188 34.0296 14.5326C32.7827 15.0466 31.4152 15.1943 30.0874 14.9591C28.7597 14.7239 27.5266 14.1156 26.5323 13.205C25.5379 12.2943 24.8231 11.1185 24.4725 9.81635C24.1219 8.51414 24.1502 7.13852 24.5529 5.8515C24.9557 4.5647 25.7164 3.41928 26.7466 2.54933C27.4886 1.92271 28.3492 1.46052 29.2712 1.18156L28.3342 3.73461Z" fill="currentColor" stroke="currentColor"/>
<path d="M27.5155 14.2969L25.6907 12.4721L7.34565 30.8172L9.17044 32.642L27.5155 14.2969Z" fill="currentColor"/>
</svg>
