<svg viewBox="0 0 40 40" fill="none" xmlns="http://www.w3.org/2000/svg">
<path d="M32 10.3H8.00005C7.06116 10.3 6.30005 11.0611 6.30005 12V24C6.30005 24.9389 7.06116 25.7 8.00005 25.7H32C32.9389 25.7 33.7001 24.9389 33.7001 24V12C33.7001 11.0611 32.9389 10.3 32 10.3Z" stroke="currentColor" stroke-width="0.6"/>
<path d="M34 8.5H6C5.17157 8.5 4.5 9.17157 4.5 10V26C4.5 26.8284 5.17157 27.5 6 27.5H34C34.8284 27.5 35.5 26.8284 35.5 26V10C35.5 9.17157 34.8284 8.5 34 8.5Z" stroke="currentColor"/>
<path d="M17.9163 14.8104L14.4286 18.2857" stroke="currentColor" stroke-width="0.75"/>
<path d="M17.7202 21.0674L14.4877 17.8349" stroke="currentColor" stroke-width="0.75"/>
<path d="M22.0836 14.8104L25.5714 18.2857" stroke="currentColor" stroke-width="0.75"/>
<path d="M22.2798 21.0674L25.5122 17.8349" stroke="currentColor" stroke-width="0.75"/>
<path d="M18.7316 21.8783L20.8613 13.9301" stroke="currentColor" stroke-width="0.45"/>
<path d="M4.24802 28.5H35.752C35.7782 28.5002 35.8036 28.5106 35.8222 28.5292L38.623 31.33C38.6432 31.3504 38.65 31.3678 38.6524 31.3808C38.655 31.3966 38.653 31.4168 38.6446 31.4376C38.636 31.4584 38.6224 31.475 38.6094 31.4844C38.5984 31.4922 38.58 31.5 38.5508 31.5H1.4492C1.41989 31.5 1.40166 31.4922 1.3906 31.4844C1.3775 31.475 1.36408 31.4584 1.35545 31.4376C1.34707 31.4168 1.34499 31.3966 1.34763 31.3808C1.34991 31.3678 1.35686 31.3504 1.37693 31.33L4.17772 28.5292C4.19636 28.5106 4.22166 28.5002 4.24802 28.5Z" stroke="currentColor"/>
</svg>
